<svg id="svg" version="1.1" xmlns="http://www.w3.org/2000/svg" xmlns:xlink="http://www.w3.org/1999/xlink" width="400" height="400.78125" viewBox="0, 0, 400,400.78125"><g id="svgg"><path id="path0" d="M174.900 0.263 C 174.405 0.369,174.000 0.623,174.000 0.828 C 174.000 1.033,173.726 1.200,173.391 1.200 C 172.599 1.200,168.400 5.399,168.400 6.191 C 168.400 6.526,168.220 6.800,168.000 6.800 C 167.780 6.800,167.600 7.340,167.600 8.000 C 167.600 8.660,167.420 9.200,167.200 9.200 C 166.963 9.200,166.800 10.659,166.800 12.776 C 166.800 14.743,166.980 16.464,167.200 16.600 C 167.420 16.736,167.604 17.242,167.609 17.724 C 167.614 18.206,167.970 19.050,168.400 19.600 C 168.830 20.150,169.186 20.749,169.191 20.931 C 169.209 21.589,172.484 24.400,173.233 24.400 C 173.655 24.400,174.000 24.580,174.000 24.800 C 174.000 25.020,174.360 25.200,174.800 25.200 C 175.240 25.200,175.600 25.380,175.600 25.600 C 175.600 25.841,177.267 26.000,179.800 26.000 C 182.333 26.000,184.000 25.841,184.000 25.600 C 184.000 25.380,184.540 25.200,185.200 25.200 C 185.860 25.200,186.400 25.020,186.400 24.800 C 186.400 24.580,186.701 24.400,187.069 24.400 C 188.046 24.400,191.190 20.951,191.464 19.578 C 191.594 18.930,191.858 18.400,192.050 18.400 C 192.243 18.400,192.400 17.871,192.400 17.224 C 192.400 16.577,192.580 15.936,192.800 15.800 C 193.020 15.664,193.200 14.303,193.200 12.776 C 193.200 11.192,193.028 10.000,192.800 10.000 C 192.580 10.000,192.400 9.460,192.400 8.800 C 192.400 8.140,192.240 7.600,192.045 7.600 C 191.849 7.600,191.572 6.977,191.429 6.217 C 191.157 4.766,188.010 1.200,187.002 1.200 C 186.707 1.200,186.392 0.975,186.300 0.700 C 186.131 0.192,176.889 -0.162,174.900 0.263 M142.000 6.400 C 142.000 6.620,141.726 6.800,141.391 6.800 C 140.785 6.800,139.972 7.510,134.600 12.725 C 131.512 15.723,130.800 16.733,130.800 18.115 C 130.800 18.624,130.604 19.236,130.365 19.475 C 130.052 19.788,130.052 19.985,130.365 20.178 C 130.604 20.326,130.800 20.889,130.800 21.429 C 130.800 23.059,132.260 25.200,133.371 25.200 C 133.717 25.200,134.000 25.380,134.000 25.600 C 134.000 25.831,135.268 26.000,137.003 26.000 L 140.007 26.000 144.758 21.258 C 150.369 15.658,150.400 15.609,150.400 12.213 C 150.400 9.459,148.737 6.800,147.013 6.800 C 146.676 6.800,146.400 6.620,146.400 6.400 C 146.400 6.180,145.410 6.000,144.200 6.000 C 142.990 6.000,142.000 6.180,142.000 6.400 M86.175 82.500 L 85.000 83.800 86.300 82.625 C 87.512 81.530,87.784 81.200,87.475 81.200 C 87.406 81.200,86.821 81.785,86.175 82.500 M189.600 85.200 C 189.600 85.420,189.323 85.600,188.985 85.600 C 188.646 85.600,186.801 87.192,184.885 89.137 C 179.928 94.168,179.200 95.069,179.200 96.173 C 179.200 96.712,179.020 97.264,178.800 97.400 C 178.580 97.536,178.400 98.076,178.400 98.600 C 178.400 99.124,178.580 99.664,178.800 99.800 C 179.020 99.936,179.200 100.487,179.200 101.024 C 179.200 101.561,179.380 102.000,179.600 102.000 C 179.820 102.000,180.000 102.225,180.000 102.501 C 180.000 104.263,185.846 105.398,188.439 104.138 C 189.981 103.389,196.704 96.716,197.568 95.077 C 197.880 94.485,198.285 94.000,198.468 94.000 C 199.853 94.000,198.735 88.313,197.011 86.589 C 195.238 84.817,189.600 83.760,189.600 85.200 M31.600 104.800 C 31.600 105.020,31.240 105.200,30.800 105.200 C 30.360 105.200,30.000 105.359,30.000 105.553 C 30.000 105.748,29.673 105.992,29.272 106.097 C 27.508 106.558,26.329 113.776,27.931 114.310 C 28.189 114.396,28.400 114.673,28.400 114.925 C 28.400 115.177,31.865 118.823,36.100 123.026 C 40.335 127.230,44.247 131.266,44.792 131.994 C 45.338 132.723,51.214 138.785,57.849 145.466 C 64.485 152.147,70.720 158.555,71.705 159.707 C 75.799 164.490,92.384 180.800,93.155 180.800 C 93.594 180.800,94.064 180.980,94.200 181.200 C 94.336 181.420,95.067 181.600,95.824 181.600 C 96.581 181.600,97.200 181.420,97.200 181.200 C 97.200 180.980,97.605 180.800,98.100 180.800 C 100.315 180.798,102.000 178.098,102.000 174.549 L 102.000 171.888 99.700 169.640 C 98.435 168.403,96.686 166.494,95.814 165.396 C 94.941 164.298,89.901 159.044,84.614 153.720 C 79.326 148.396,73.560 142.473,71.800 140.558 C 70.040 138.643,63.380 131.822,57.000 125.401 C 50.620 118.980,44.860 113.091,44.199 112.315 C 41.219 108.812,38.375 106.000,37.813 106.000 C 37.476 106.000,37.200 105.820,37.200 105.600 C 37.200 105.380,36.840 105.200,36.400 105.200 C 35.960 105.200,35.600 105.020,35.600 104.800 C 35.600 104.580,34.700 104.400,33.600 104.400 C 32.500 104.400,31.600 104.580,31.600 104.800 M150.400 105.600 C 150.400 105.820,149.891 106.000,149.270 106.000 C 147.239 106.000,145.600 108.600,145.600 111.821 C 145.600 114.725,147.271 117.600,148.958 117.600 C 149.285 117.600,149.664 117.780,149.800 118.000 C 150.524 119.172,154.964 118.197,156.672 116.491 C 159.738 113.427,158.534 106.000,154.971 106.000 C 154.437 106.000,154.000 105.820,154.000 105.600 C 154.000 105.380,153.190 105.200,152.200 105.200 C 151.210 105.200,150.400 105.380,150.400 105.600 M297.800 106.251 C 295.449 106.602,290.422 109.862,290.391 111.054 C 290.386 111.244,290.030 111.850,289.600 112.400 C 289.170 112.950,288.814 113.805,288.809 114.300 C 288.804 114.795,288.620 115.200,288.400 115.200 C 288.158 115.200,288.000 116.925,288.000 119.576 C 288.000 122.063,288.173 124.060,288.400 124.200 C 288.620 124.336,288.800 124.797,288.800 125.224 C 288.800 125.651,288.980 126.000,289.200 126.000 C 289.420 126.000,289.600 126.274,289.600 126.609 C 289.600 127.929,294.827 132.400,296.371 132.400 C 296.801 132.400,297.264 132.580,297.400 132.800 C 297.536 133.020,299.066 133.200,300.800 133.200 C 302.534 133.200,304.064 133.020,304.200 132.800 C 304.336 132.580,304.776 132.400,305.178 132.400 C 306.843 132.400,312.000 128.014,312.000 126.598 C 312.000 126.269,312.180 126.000,312.400 126.000 C 312.620 126.000,312.800 125.640,312.800 125.200 C 312.800 124.760,312.980 124.400,313.200 124.400 C 313.444 124.400,313.600 122.541,313.600 119.624 C 313.600 116.871,313.431 114.742,313.200 114.600 C 312.980 114.464,312.800 114.003,312.800 113.576 C 312.800 113.149,312.620 112.800,312.400 112.800 C 312.180 112.800,312.000 112.559,312.000 112.264 C 312.000 108.927,303.622 105.380,297.800 106.251 M279.803 188.124 C 278.328 189.005,277.200 190.434,277.200 191.421 C 277.200 191.959,277.020 192.400,276.800 192.400 C 276.580 192.400,276.400 193.120,276.400 194.000 C 276.400 194.880,276.580 195.600,276.800 195.600 C 277.020 195.600,277.200 196.124,277.200 196.764 C 277.200 198.339,279.166 200.000,281.031 200.000 C 281.784 200.000,282.400 200.180,282.400 200.400 C 282.400 200.620,282.760 200.800,283.200 200.800 C 283.640 200.800,284.000 200.620,284.000 200.400 C 284.000 200.180,284.561 200.000,285.247 200.000 C 289.488 200.000,291.165 192.934,287.769 189.373 C 286.071 187.592,281.810 186.924,279.803 188.124 M293.600 273.200 C 293.600 273.420,293.060 273.600,292.400 273.600 C 291.740 273.600,291.200 273.780,291.200 274.000 C 291.200 274.220,290.964 274.400,290.675 274.400 C 290.387 274.400,289.764 274.760,289.292 275.200 C 288.820 275.640,288.196 276.000,287.905 276.000 C 287.614 276.000,287.117 276.360,286.800 276.800 C 286.483 277.240,285.943 277.600,285.600 277.600 C 285.257 277.600,284.717 277.960,284.400 278.400 C 284.083 278.840,283.543 279.200,283.200 279.200 C 282.857 279.200,282.317 279.560,282.000 280.000 C 281.683 280.440,281.227 280.800,280.987 280.800 C 280.747 280.800,280.202 281.115,279.775 281.500 C 279.348 281.885,278.279 282.732,277.400 283.383 C 276.520 284.034,275.323 285.069,274.740 285.683 C 274.156 286.297,273.488 286.800,273.255 286.800 C 272.622 286.800,258.400 301.174,258.400 301.813 C 258.400 301.915,257.680 302.741,256.800 303.648 C 255.920 304.555,255.200 305.473,255.200 305.688 C 255.200 305.903,254.660 306.583,254.000 307.200 C 253.340 307.817,252.800 308.569,252.800 308.872 C 252.800 309.175,252.440 309.683,252.000 310.000 C 251.560 310.317,251.200 310.773,251.200 311.013 C 251.200 311.253,250.876 311.798,250.481 312.225 C 249.376 313.415,246.400 317.903,246.400 318.378 C 246.400 318.610,246.265 318.800,246.099 318.800 C 245.803 318.800,244.710 320.774,243.387 323.700 C 243.014 324.525,242.549 325.200,242.354 325.200 C 242.159 325.200,242.000 325.560,242.000 326.000 C 242.000 326.440,241.820 326.800,241.600 326.800 C 241.380 326.800,241.200 327.160,241.200 327.600 C 241.200 328.040,241.020 328.400,240.800 328.400 C 240.580 328.400,240.400 328.760,240.400 329.200 C 240.400 329.640,240.220 330.000,240.000 330.000 C 239.780 330.000,239.600 330.349,239.600 330.776 C 239.600 331.203,239.420 331.664,239.200 331.800 C 238.980 331.936,238.800 332.397,238.800 332.824 C 238.800 333.251,238.620 333.600,238.400 333.600 C 238.180 333.600,238.000 333.960,238.000 334.400 C 238.000 334.840,237.820 335.200,237.600 335.200 C 237.380 335.200,237.200 335.560,237.200 336.000 C 237.200 336.440,237.020 336.800,236.800 336.800 C 236.580 336.800,236.400 337.149,236.400 337.576 C 236.400 338.003,236.220 338.464,236.000 338.600 C 235.780 338.736,235.600 339.287,235.600 339.824 C 235.600 340.361,235.420 340.800,235.200 340.800 C 234.980 340.800,234.800 341.340,234.800 342.000 C 234.800 342.660,234.620 343.200,234.400 343.200 C 234.180 343.200,234.000 343.740,234.000 344.400 C 234.000 345.060,233.820 345.600,233.600 345.600 C 233.380 345.600,233.200 345.962,233.200 346.405 C 233.200 346.848,233.041 347.523,232.847 347.905 C 231.844 349.877,231.433 351.246,230.927 354.304 C 230.809 355.021,230.551 355.706,230.356 355.827 C 230.160 355.948,230.000 356.656,230.000 357.400 C 230.000 358.144,229.820 358.864,229.600 359.000 C 229.380 359.136,229.200 359.856,229.200 360.600 C 229.200 361.344,229.020 362.064,228.800 362.200 C 228.580 362.336,228.400 363.301,228.400 364.344 C 228.400 365.387,228.232 366.411,228.027 366.620 C 227.821 366.829,227.526 369.205,227.370 371.900 C 227.214 374.595,226.932 376.800,226.743 376.800 C 226.555 376.800,226.400 378.679,226.400 380.976 C 226.400 383.329,226.225 385.261,226.000 385.400 C 225.767 385.544,225.600 387.804,225.600 390.824 C 225.600 394.008,225.754 396.000,226.000 396.000 C 226.220 396.000,226.400 396.463,226.400 397.029 C 226.400 397.594,226.654 398.311,226.964 398.621 C 227.275 398.932,227.605 399.414,227.697 399.693 C 228.450 401.954,238.000 399.865,238.000 397.440 C 238.000 397.088,238.171 396.800,238.381 396.800 C 238.597 396.800,238.850 394.080,238.966 390.500 C 239.256 381.539,239.599 377.058,240.028 376.620 C 240.233 376.411,240.400 375.027,240.400 373.544 C 240.400 372.061,240.567 370.744,240.770 370.618 C 240.974 370.492,241.267 368.772,241.422 366.795 C 241.577 364.818,241.860 363.200,242.052 363.200 C 242.243 363.200,242.400 362.390,242.400 361.400 C 242.400 360.410,242.580 359.600,242.800 359.600 C 243.020 359.600,243.200 359.060,243.200 358.400 C 243.200 357.740,243.380 357.200,243.600 357.200 C 243.820 357.200,244.000 356.660,244.000 356.000 C 244.000 355.340,244.180 354.800,244.400 354.800 C 244.620 354.800,244.800 354.181,244.800 353.424 C 244.800 352.667,244.980 351.936,245.200 351.800 C 245.420 351.664,245.600 351.023,245.600 350.376 C 245.600 349.729,245.780 349.200,246.000 349.200 C 246.220 349.200,246.400 348.840,246.400 348.400 C 246.400 347.960,246.580 347.600,246.800 347.600 C 247.020 347.600,247.200 347.060,247.200 346.400 C 247.200 345.740,247.380 345.200,247.600 345.200 C 247.820 345.200,248.000 344.840,248.000 344.400 C 248.000 343.960,248.180 343.600,248.400 343.600 C 248.620 343.600,248.800 343.150,248.800 342.600 C 248.800 342.050,248.980 341.600,249.200 341.600 C 249.420 341.600,249.599 341.375,249.597 341.100 C 249.593 340.467,252.888 333.846,253.296 333.667 C 253.463 333.593,253.600 333.188,253.600 332.767 C 253.600 332.345,253.780 332.000,254.000 332.000 C 254.220 332.000,254.400 331.640,254.400 331.200 C 254.400 330.760,254.580 330.400,254.800 330.400 C 255.020 330.400,255.200 330.040,255.200 329.600 C 255.200 329.160,255.380 328.800,255.600 328.800 C 255.820 328.800,256.000 328.564,256.000 328.275 C 256.000 327.987,256.360 327.364,256.800 326.892 C 257.240 326.420,257.600 325.868,257.600 325.666 C 257.600 325.463,257.870 325.074,258.200 324.800 C 258.530 324.526,258.800 323.964,258.800 323.551 C 258.800 323.138,258.950 322.800,259.132 322.800 C 259.315 322.800,259.720 322.305,260.032 321.700 C 260.345 321.095,260.915 320.251,261.300 319.825 C 261.685 319.398,262.000 318.885,262.000 318.685 C 262.000 318.485,262.540 317.817,263.200 317.200 C 263.860 316.583,264.400 315.875,264.400 315.626 C 264.400 315.377,264.985 314.565,265.700 313.822 C 268.107 311.320,272.119 306.808,272.745 305.900 C 273.086 305.405,274.027 304.370,274.835 303.600 C 280.269 298.422,282.167 296.732,283.119 296.226 C 283.713 295.910,284.965 294.920,285.901 294.026 C 286.836 293.132,287.736 292.400,287.901 292.400 C 288.065 292.399,288.680 291.994,289.266 291.500 C 291.655 289.485,291.973 289.242,292.843 288.777 C 293.342 288.510,294.110 287.956,294.550 287.546 C 294.991 287.136,295.587 286.800,295.875 286.800 C 296.164 286.800,296.400 286.620,296.400 286.400 C 296.400 286.180,296.694 286.000,297.053 286.000 C 297.412 286.000,297.997 285.673,298.353 285.272 C 298.709 284.872,299.315 284.428,299.700 284.285 C 300.085 284.142,300.400 283.749,300.400 283.413 C 300.400 283.076,300.580 282.800,300.800 282.800 C 301.020 282.800,301.200 282.116,301.200 281.280 C 301.200 280.444,301.396 279.564,301.635 279.325 C 301.948 279.012,301.948 278.815,301.635 278.622 C 301.396 278.474,301.200 277.907,301.200 277.363 C 301.200 276.036,298.749 273.600,297.413 273.600 C 296.856 273.600,296.400 273.420,296.400 273.200 C 296.400 272.980,295.770 272.800,295.000 272.800 C 294.230 272.800,293.600 272.980,293.600 273.200 M111.200 369.200 C 111.200 369.420,111.018 369.600,110.795 369.600 C 110.573 369.600,108.503 371.488,106.195 373.795 C 103.888 376.103,102.000 378.173,102.000 378.395 C 102.000 378.618,101.820 378.800,101.600 378.800 C 101.380 378.800,101.200 379.329,101.200 379.976 C 101.200 380.623,101.020 381.264,100.800 381.400 C 100.580 381.536,100.400 382.087,100.400 382.624 C 100.400 383.161,100.580 383.600,100.800 383.600 C 101.020 383.600,101.200 384.068,101.200 384.640 C 101.200 385.900,103.551 388.400,104.736 388.400 C 105.185 388.400,105.664 388.580,105.800 388.800 C 105.936 389.020,106.566 389.200,107.200 389.200 C 107.834 389.200,108.464 389.020,108.600 388.800 C 108.736 388.580,109.197 388.400,109.624 388.400 C 110.051 388.400,110.400 388.220,110.400 388.000 C 110.400 387.780,110.672 387.600,111.005 387.600 C 111.741 387.600,119.200 380.221,119.200 379.493 C 119.200 379.209,119.560 378.717,120.000 378.400 C 120.809 377.817,121.263 372.004,120.500 371.997 C 120.335 371.996,119.893 371.456,119.519 370.797 C 119.144 370.139,118.559 369.600,118.219 369.600 C 117.878 369.600,117.600 369.420,117.600 369.200 C 117.600 368.967,116.267 368.800,114.400 368.800 C 112.533 368.800,111.200 368.967,111.200 369.200 " stroke="none" fill="#fc4c64" fill-rule="evenodd"></path><path id="path1" d="M89.600 1.502 C 89.600 1.669,89.060 2.044,88.400 2.336 C 87.669 2.659,87.200 3.167,87.200 3.634 C 87.200 4.055,87.020 4.400,86.800 4.400 C 85.974 4.400,86.338 10.208,87.274 11.962 C 87.755 12.863,88.295 13.600,88.474 13.600 C 88.653 13.600,88.800 13.945,88.800 14.367 C 88.800 14.788,88.935 15.193,89.100 15.267 C 89.265 15.340,89.833 16.255,90.363 17.300 C 90.892 18.345,91.477 19.200,91.663 19.200 C 91.848 19.200,92.000 19.560,92.000 20.000 C 92.000 20.440,92.146 20.800,92.325 20.800 C 92.504 20.800,92.901 21.439,93.208 22.219 C 93.514 23.000,93.997 23.832,94.282 24.068 C 94.567 24.305,94.800 24.836,94.800 25.249 C 94.800 25.662,94.935 26.003,95.100 26.006 C 95.265 26.010,95.840 26.910,96.379 28.006 C 96.917 29.103,97.502 30.000,97.679 30.000 C 97.855 30.000,98.000 30.360,98.000 30.800 C 98.000 31.240,98.180 31.600,98.400 31.600 C 98.620 31.600,98.800 31.960,98.800 32.400 C 98.800 32.840,98.980 33.200,99.200 33.200 C 99.420 33.200,99.600 33.436,99.600 33.725 C 99.600 34.013,99.960 34.636,100.400 35.108 C 100.840 35.580,101.200 36.244,101.200 36.583 C 101.200 36.922,101.336 37.200,101.502 37.200 C 101.669 37.200,102.060 37.785,102.372 38.500 C 102.684 39.215,103.268 40.091,103.670 40.447 C 104.071 40.803,104.400 41.388,104.400 41.747 C 104.400 42.106,104.580 42.400,104.800 42.400 C 105.020 42.400,105.200 42.760,105.200 43.200 C 105.200 43.640,105.380 44.000,105.600 44.000 C 105.820 44.000,106.000 44.320,106.000 44.712 C 106.000 45.103,106.360 45.683,106.800 46.000 C 107.240 46.317,107.600 46.897,107.600 47.288 C 107.600 47.680,107.780 48.000,108.000 48.000 C 108.220 48.000,108.400 48.345,108.400 48.767 C 108.400 49.188,108.537 49.593,108.704 49.667 C 108.871 49.740,109.477 50.700,110.051 51.800 C 112.252 56.015,112.959 57.200,113.274 57.200 C 113.453 57.200,113.600 57.560,113.600 58.000 C 113.600 58.440,113.780 58.800,114.000 58.800 C 114.220 58.800,114.400 59.160,114.400 59.600 C 114.400 60.040,114.580 60.400,114.800 60.400 C 115.020 60.400,115.200 60.636,115.200 60.925 C 115.200 61.213,115.560 61.836,116.000 62.308 C 116.440 62.780,116.800 63.444,116.800 63.783 C 116.800 64.122,116.980 64.400,117.200 64.400 C 117.420 64.400,117.600 64.760,117.600 65.200 C 117.600 65.640,117.780 66.000,118.000 66.000 C 118.220 66.000,118.400 66.236,118.400 66.525 C 118.400 66.813,118.715 67.398,119.101 67.825 C 119.486 68.251,120.248 69.500,120.794 70.600 C 121.340 71.700,122.104 72.891,122.493 73.247 C 122.882 73.603,123.200 74.188,123.200 74.547 C 123.200 74.906,123.380 75.200,123.600 75.200 C 123.820 75.200,124.000 75.560,124.000 76.000 C 124.000 76.440,124.180 76.800,124.400 76.800 C 124.620 76.800,124.800 77.120,124.800 77.512 C 124.800 77.903,125.160 78.483,125.600 78.800 C 126.040 79.117,126.400 79.697,126.400 80.088 C 126.400 80.480,126.580 80.800,126.800 80.800 C 127.020 80.800,127.200 81.135,127.200 81.544 C 127.200 81.953,127.650 82.951,128.200 83.762 C 128.750 84.572,129.200 85.408,129.200 85.618 C 129.200 85.828,129.380 86.000,129.600 86.000 C 129.820 86.000,130.000 86.287,130.000 86.638 C 130.000 87.862,132.380 90.800,133.371 90.800 C 133.717 90.800,134.000 90.980,134.000 91.200 C 134.000 91.430,135.233 91.600,136.900 91.599 C 139.854 91.598,142.400 90.343,142.400 88.888 C 142.400 88.620,142.580 88.400,142.800 88.400 C 143.028 88.400,143.200 87.208,143.200 85.624 C 143.200 84.097,143.020 82.736,142.800 82.600 C 142.580 82.464,142.400 82.003,142.400 81.576 C 142.400 81.149,142.247 80.800,142.061 80.800 C 141.874 80.800,141.384 80.035,140.972 79.100 C 140.559 78.165,140.113 77.310,139.979 77.200 C 139.845 77.090,139.481 76.415,139.170 75.700 C 138.859 74.985,138.469 74.400,138.302 74.400 C 138.136 74.400,138.000 74.130,138.000 73.800 C 138.000 73.470,137.820 73.200,137.600 73.200 C 137.380 73.200,137.200 72.855,137.200 72.433 C 137.200 72.012,137.034 71.607,136.830 71.533 C 136.627 71.460,136.402 71.137,136.330 70.816 C 136.259 70.494,135.885 69.875,135.500 69.440 C 135.115 69.005,134.800 68.413,134.800 68.125 C 134.800 67.836,134.620 67.600,134.400 67.600 C 134.180 67.600,134.000 67.240,134.000 66.800 C 134.000 66.360,133.820 66.000,133.600 66.000 C 133.380 66.000,133.200 65.722,133.200 65.383 C 133.200 65.044,132.840 64.380,132.400 63.908 C 131.960 63.436,131.600 62.813,131.600 62.525 C 131.600 62.236,131.420 62.000,131.200 62.000 C 130.980 62.000,130.800 61.640,130.800 61.200 C 130.800 60.760,130.620 60.400,130.400 60.400 C 130.180 60.400,130.000 60.130,130.000 59.800 C 130.000 59.470,129.820 59.200,129.600 59.200 C 129.380 59.200,129.200 58.964,129.200 58.675 C 129.200 58.387,128.840 57.764,128.400 57.292 C 127.960 56.820,127.600 56.156,127.600 55.817 C 127.600 55.478,127.420 55.200,127.200 55.200 C 126.980 55.200,126.800 54.855,126.800 54.433 C 126.800 54.012,126.665 53.607,126.500 53.533 C 126.335 53.460,125.501 52.054,124.647 50.410 C 122.635 46.535,122.249 45.842,121.968 45.600 C 121.840 45.490,121.481 44.815,121.170 44.100 C 120.859 43.385,120.490 42.800,120.351 42.800 C 120.211 42.800,119.873 42.260,119.600 41.600 C 119.327 40.940,118.945 40.400,118.751 40.400 C 118.558 40.400,118.400 40.040,118.400 39.600 C 118.400 39.160,118.220 38.800,118.000 38.800 C 117.780 38.800,117.600 38.440,117.600 38.000 C 117.600 37.560,117.420 37.200,117.200 37.200 C 116.980 37.200,116.800 36.964,116.800 36.675 C 116.800 36.387,116.440 35.764,116.000 35.292 C 115.560 34.820,115.200 34.156,115.200 33.817 C 115.200 33.478,115.020 33.200,114.800 33.200 C 114.580 33.200,114.400 32.840,114.400 32.400 C 114.400 31.960,114.220 31.600,114.000 31.600 C 113.780 31.600,113.600 31.330,113.600 31.000 C 113.600 30.670,113.420 30.400,113.200 30.400 C 112.980 30.400,112.800 30.130,112.800 29.800 C 112.800 29.470,112.620 29.200,112.400 29.200 C 112.180 29.200,112.000 28.829,112.000 28.376 C 112.000 27.923,111.820 27.664,111.600 27.800 C 111.380 27.936,111.200 27.764,111.200 27.418 C 111.200 26.651,110.424 25.221,109.564 24.404 C 109.214 24.072,108.797 23.271,108.637 22.624 C 108.478 21.978,107.999 20.960,107.573 20.363 C 107.148 19.765,106.800 19.079,106.800 18.838 C 106.800 18.597,106.620 18.400,106.400 18.400 C 106.180 18.400,106.000 18.040,106.000 17.600 C 106.000 17.160,105.820 16.800,105.600 16.800 C 105.380 16.800,105.200 16.530,105.200 16.200 C 105.200 15.870,105.020 15.600,104.800 15.600 C 104.580 15.600,104.400 15.330,104.400 15.000 C 104.400 14.670,104.220 14.400,104.000 14.400 C 103.780 14.400,103.600 14.040,103.600 13.600 C 103.600 13.160,103.454 12.800,103.275 12.800 C 103.096 12.800,102.702 12.170,102.400 11.400 C 102.098 10.630,101.704 10.000,101.525 10.000 C 101.346 10.000,101.200 9.730,101.200 9.400 C 101.200 9.070,101.020 8.800,100.800 8.800 C 100.580 8.800,100.400 8.530,100.400 8.200 C 100.400 7.870,100.220 7.600,100.000 7.600 C 99.780 7.600,99.600 7.240,99.600 6.800 C 99.600 6.360,99.420 6.000,99.200 6.000 C 98.980 6.000,98.800 5.765,98.800 5.478 C 98.800 4.845,96.526 2.392,95.298 1.700 C 94.347 1.164,89.600 0.999,89.600 1.502 M356.000 59.200 C 356.000 59.420,355.739 59.600,355.421 59.600 C 354.665 59.600,346.162 68.058,345.814 69.157 C 345.667 69.621,345.407 70.000,345.236 70.000 C 344.580 70.000,344.733 75.076,345.409 75.752 C 345.765 76.108,345.946 76.400,345.810 76.400 C 345.675 76.400,346.014 76.850,346.564 77.400 C 347.114 77.950,347.842 78.400,348.182 78.400 C 348.522 78.400,348.800 78.580,348.800 78.800 C 348.800 79.020,349.782 79.200,350.981 79.200 C 353.142 79.200,355.200 78.583,355.200 77.936 C 355.200 77.751,355.365 77.600,355.566 77.600 C 356.086 77.600,358.800 74.901,358.800 74.383 C 358.800 74.147,358.980 74.064,359.200 74.200 C 359.420 74.336,359.600 74.255,359.600 74.021 C 359.600 73.787,360.680 72.531,362.000 71.232 C 363.367 69.886,364.400 68.520,364.400 68.058 C 364.400 67.612,364.580 67.136,364.800 67.000 C 365.020 66.864,365.200 66.043,365.200 65.176 C 365.200 64.309,365.020 63.600,364.800 63.600 C 364.580 63.600,364.400 63.150,364.400 62.600 C 364.400 62.050,364.220 61.600,364.000 61.600 C 363.780 61.600,363.600 61.345,363.600 61.034 C 363.600 60.722,363.060 60.228,362.400 59.936 C 361.740 59.644,361.200 59.269,361.200 59.102 C 361.200 58.936,360.030 58.800,358.600 58.800 C 357.133 58.800,356.000 58.974,356.000 59.200 M125.832 205.832 L 124.000 207.663 124.000 210.655 C 124.000 212.548,124.147 213.556,124.400 213.400 C 124.620 213.264,124.800 213.369,124.800 213.633 C 124.800 213.897,125.338 214.628,125.996 215.257 C 128.763 217.901,136.400 216.158,136.400 212.883 C 136.400 212.423,136.580 211.936,136.800 211.800 C 137.020 211.664,137.200 211.034,137.200 210.400 C 137.200 209.766,137.020 209.136,136.800 209.000 C 136.580 208.864,136.400 208.403,136.400 207.976 C 136.400 207.549,136.220 207.200,136.000 207.200 C 135.780 207.200,135.600 206.917,135.600 206.571 C 135.600 205.763,134.637 204.800,133.829 204.800 C 133.483 204.800,133.200 204.620,133.200 204.400 C 133.200 202.941,127.643 204.021,125.832 205.832 M80.800 212.400 C 80.470 212.613,79.795 212.791,79.300 212.794 C 78.805 212.797,78.400 212.980,78.400 213.200 C 78.400 213.420,78.207 213.600,77.971 213.600 C 77.736 213.600,77.271 213.872,76.939 214.204 C 76.607 214.536,76.142 214.688,75.906 214.542 C 75.651 214.385,75.593 214.464,75.762 214.738 C 75.919 214.992,75.833 215.200,75.570 215.200 C 74.976 215.200,73.201 217.223,73.200 217.900 C 73.200 218.175,73.020 218.400,72.800 218.400 C 72.580 218.400,72.400 218.771,72.400 219.224 C 72.400 219.677,72.220 219.936,72.000 219.800 C 71.767 219.656,71.600 220.063,71.600 220.776 C 71.600 221.449,71.420 222.000,71.200 222.000 C 70.965 222.000,70.800 223.392,70.800 225.376 C 70.800 227.233,70.980 228.864,71.200 229.000 C 71.420 229.136,71.600 229.599,71.600 230.029 C 71.600 230.960,72.331 232.341,73.300 233.243 C 73.685 233.601,74.000 234.111,74.000 234.375 C 74.000 234.997,75.003 236.000,75.625 236.000 C 75.889 236.000,76.399 236.315,76.757 236.700 C 77.724 237.739,79.061 238.400,80.195 238.400 C 80.748 238.400,81.200 238.580,81.200 238.800 C 81.200 239.029,82.400 239.200,84.000 239.200 C 85.600 239.200,86.800 239.029,86.800 238.800 C 86.800 238.580,87.441 238.400,88.224 238.400 C 89.071 238.400,89.547 238.238,89.400 238.000 C 89.264 237.780,89.513 237.600,89.954 237.600 C 90.394 237.600,90.993 237.285,91.283 236.900 C 91.574 236.515,92.157 236.008,92.579 235.773 C 93.001 235.539,93.539 235.001,93.773 234.579 C 94.008 234.157,94.470 233.537,94.800 233.201 C 95.773 232.212,96.400 230.881,96.400 229.805 C 96.400 229.252,96.580 228.800,96.800 228.800 C 97.033 228.800,97.200 227.475,97.200 225.624 C 97.200 223.877,97.020 222.336,96.800 222.200 C 96.580 222.064,96.400 221.601,96.400 221.171 C 96.400 220.292,95.701 218.910,94.797 218.004 C 94.466 217.672,93.941 216.907,93.632 216.305 C 93.323 215.702,92.572 214.989,91.964 214.720 C 91.355 214.451,90.945 214.088,91.052 213.915 C 91.160 213.742,90.877 213.600,90.424 213.600 C 89.971 213.600,89.600 213.420,89.600 213.200 C 89.600 212.980,89.060 212.800,88.400 212.800 C 87.740 212.800,87.200 212.620,87.200 212.400 C 87.200 211.883,81.600 211.883,80.800 212.400 M195.456 268.966 L 193.512 270.729 193.661 274.015 C 193.835 277.835,195.237 279.648,198.412 280.155 C 201.601 280.665,206.000 278.472,206.000 276.371 C 206.000 275.968,206.211 275.174,206.469 274.608 C 206.828 273.820,206.828 273.468,206.469 273.109 C 206.211 272.851,206.000 272.219,206.000 271.705 C 206.000 271.120,205.313 270.102,204.163 268.985 C 201.446 266.344,198.355 266.337,195.456 268.966 M196.567 298.388 C 196.109 298.573,195.254 299.295,194.667 299.993 L 193.600 301.261 193.600 349.335 L 193.600 397.408 194.576 398.461 C 195.113 399.040,195.455 399.612,195.335 399.731 C 194.915 400.151,198.026 400.486,200.969 400.338 C 204.204 400.174,205.366 399.433,205.844 397.226 C 205.967 396.662,206.145 395.952,206.240 395.650 C 206.485 394.872,206.447 303.914,206.202 303.669 C 206.091 303.558,206.000 302.867,206.000 302.133 C 206.000 301.400,205.820 300.800,205.600 300.800 C 205.380 300.800,205.200 300.530,205.200 300.200 C 205.200 299.870,205.020 299.600,204.800 299.600 C 204.580 299.600,204.040 299.240,203.600 298.800 C 202.740 297.940,198.316 297.680,196.567 298.388 M299.600 333.200 C 299.600 333.420,299.257 333.600,298.838 333.600 C 296.825 333.600,290.400 338.619,290.400 340.191 C 290.400 340.526,290.220 340.800,290.000 340.800 C 289.780 340.800,289.600 341.160,289.600 341.600 C 289.600 342.040,289.420 342.400,289.200 342.400 C 288.980 342.400,288.800 342.940,288.800 343.600 C 288.800 344.260,288.620 344.800,288.400 344.800 C 288.156 344.800,288.000 346.667,288.000 349.600 C 288.000 352.533,288.156 354.400,288.400 354.400 C 288.620 354.400,288.800 354.850,288.800 355.400 C 288.800 355.950,288.980 356.400,289.200 356.400 C 289.420 356.400,289.600 356.760,289.600 357.200 C 289.600 357.640,289.780 358.000,290.000 358.000 C 290.220 358.000,290.400 358.317,290.400 358.704 C 290.400 359.091,290.760 359.632,291.200 359.907 C 291.640 360.182,292.000 360.675,292.000 361.003 C 292.000 361.332,292.268 361.600,292.597 361.600 C 292.925 361.600,293.709 362.140,294.340 362.800 C 294.971 363.460,295.692 364.000,295.943 364.000 C 296.194 364.000,296.400 364.180,296.400 364.400 C 296.400 364.620,296.951 364.800,297.624 364.800 C 298.337 364.800,298.744 364.967,298.600 365.200 C 298.448 365.446,299.121 365.600,300.353 365.600 C 301.453 365.600,302.464 365.780,302.600 366.000 C 302.736 366.220,303.366 366.400,304.000 366.400 C 304.634 366.400,305.264 366.220,305.400 366.000 C 305.536 365.780,306.436 365.600,307.400 365.600 C 308.364 365.600,309.264 365.420,309.400 365.200 C 309.536 364.980,309.997 364.800,310.424 364.800 C 310.851 364.800,311.200 364.620,311.200 364.400 C 311.200 364.180,311.488 364.000,311.840 364.000 C 312.191 364.000,312.983 363.460,313.600 362.800 C 314.217 362.140,314.879 361.600,315.072 361.600 C 315.520 361.600,316.800 360.116,316.800 359.595 C 316.800 359.378,316.980 359.200,317.200 359.200 C 317.420 359.200,317.600 358.930,317.600 358.600 C 317.600 358.270,317.735 357.999,317.900 357.997 C 318.301 357.993,319.200 356.019,319.200 355.144 C 319.200 354.761,319.380 354.336,319.600 354.200 C 319.829 354.058,320.000 351.996,320.000 349.376 C 320.000 346.592,319.843 344.800,319.600 344.800 C 319.380 344.800,319.200 344.260,319.200 343.600 C 319.200 342.940,319.020 342.400,318.800 342.400 C 318.580 342.400,318.400 342.040,318.400 341.600 C 318.400 341.160,318.250 340.800,318.068 340.800 C 317.885 340.800,317.480 340.307,317.168 339.705 C 316.386 338.196,313.355 335.200,312.611 335.200 C 312.275 335.200,312.000 335.020,312.000 334.800 C 312.000 334.580,311.640 334.400,311.200 334.400 C 310.760 334.400,310.400 334.220,310.400 334.000 C 310.400 333.780,309.961 333.600,309.424 333.600 C 308.887 333.600,308.336 333.420,308.200 333.200 C 308.061 332.975,306.129 332.800,303.776 332.800 C 301.259 332.800,299.600 332.959,299.600 333.200 " stroke="none" fill="#5e8fae" fill-rule="evenodd"></path><path id="path2" d="M219.127 27.457 C 218.617 27.740,217.766 27.978,217.235 27.986 C 215.272 28.015,210.006 32.090,209.379 34.066 C 209.251 34.470,208.978 34.800,208.773 34.800 C 208.568 34.800,208.400 35.160,208.400 35.600 C 208.400 36.040,208.220 36.400,208.000 36.400 C 207.780 36.400,207.600 36.760,207.600 37.200 C 207.600 37.640,207.420 38.000,207.200 38.000 C 206.980 38.000,206.800 39.001,206.800 40.224 C 206.800 41.720,206.658 42.359,206.366 42.179 C 205.871 41.873,205.961 45.259,206.457 45.609 C 206.620 45.724,206.797 46.660,206.850 47.687 C 206.904 48.715,207.058 49.488,207.194 49.404 C 207.330 49.320,207.676 50.050,207.964 51.026 C 208.253 52.002,208.636 52.800,208.817 52.800 C 208.998 52.800,209.253 53.138,209.384 53.550 C 209.666 54.437,212.251 57.179,212.928 57.309 C 213.188 57.359,213.701 57.727,214.070 58.126 C 214.438 58.526,214.843 58.841,214.970 58.826 C 215.868 58.724,216.417 58.848,216.251 59.117 C 216.144 59.291,216.621 59.477,217.312 59.530 C 218.003 59.582,218.666 59.774,218.784 59.956 C 219.113 60.460,225.478 60.522,225.785 60.024 C 225.929 59.791,226.577 59.600,227.224 59.600 C 227.871 59.600,228.400 59.420,228.400 59.200 C 228.400 58.980,228.760 58.800,229.200 58.800 C 229.640 58.800,230.000 58.620,230.000 58.400 C 230.000 58.180,230.288 58.000,230.640 58.000 C 230.991 58.000,231.801 57.441,232.440 56.758 C 233.078 56.074,233.600 55.664,233.600 55.847 C 233.600 56.029,233.906 55.733,234.280 55.189 C 234.654 54.645,235.287 53.963,235.687 53.673 C 236.086 53.383,236.309 52.976,236.181 52.770 C 236.054 52.563,236.231 52.286,236.575 52.154 C 236.919 52.022,237.200 51.484,237.200 50.957 C 237.200 50.431,237.360 50.000,237.555 50.000 C 238.370 50.000,239.098 40.686,238.354 39.760 C 238.160 39.517,237.963 38.855,237.916 38.288 C 237.869 37.721,237.688 37.345,237.515 37.452 C 237.342 37.560,237.200 37.292,237.200 36.857 C 237.200 36.422,237.036 36.007,236.837 35.933 C 236.637 35.860,236.412 35.468,236.337 35.062 C 236.161 34.112,231.334 29.200,230.576 29.200 C 230.259 29.200,230.000 29.020,230.000 28.800 C 230.000 28.580,229.550 28.400,229.000 28.400 C 228.450 28.400,228.000 28.265,227.999 28.100 C 227.999 27.935,227.427 27.760,226.729 27.711 C 226.031 27.661,225.357 27.467,225.230 27.279 C 224.871 26.745,220.163 26.883,219.127 27.457 M197.200 135.915 C 197.200 136.088,196.845 136.257,196.411 136.289 C 195.683 136.344,193.485 138.000,194.140 138.000 C 194.300 138.000,194.064 138.394,193.616 138.875 C 193.167 139.357,192.800 140.066,192.800 140.452 C 192.800 140.837,192.620 141.264,192.400 141.400 C 192.180 141.536,192.000 142.007,192.000 142.447 C 192.000 142.887,191.839 143.148,191.643 143.027 C 191.447 142.905,191.051 143.603,190.763 144.577 C 190.476 145.552,190.096 146.260,189.920 146.151 C 189.744 146.042,189.600 146.313,189.600 146.753 C 189.600 147.193,189.420 147.664,189.200 147.800 C 188.980 147.936,188.800 148.397,188.800 148.824 C 188.800 149.251,188.620 149.600,188.400 149.600 C 188.180 149.600,188.000 149.853,188.000 150.162 C 188.000 150.695,186.443 153.973,185.987 154.400 C 185.869 154.510,185.313 155.634,184.750 156.897 C 184.187 158.160,183.608 159.075,183.464 158.930 C 183.319 158.785,183.200 158.991,183.200 159.386 C 183.200 160.208,181.912 161.449,180.652 161.842 C 180.184 161.988,179.706 162.253,179.591 162.430 C 179.476 162.607,178.171 162.791,176.691 162.839 C 175.211 162.887,174.000 163.078,174.000 163.263 C 174.000 163.448,173.040 163.600,171.867 163.600 C 170.693 163.600,169.598 163.735,169.433 163.900 C 169.060 164.274,168.943 164.289,165.976 164.350 C 164.474 164.381,163.647 164.552,163.800 164.800 C 163.955 165.051,163.079 165.200,161.447 165.200 C 160.017 165.200,158.736 165.380,158.600 165.600 C 158.464 165.820,157.823 166.000,157.176 166.000 C 156.529 166.000,156.000 166.180,156.000 166.400 C 156.000 166.620,155.736 166.800,155.414 166.800 C 155.092 166.800,154.643 167.146,154.417 167.569 C 154.190 167.992,153.779 168.584,153.503 168.884 C 152.456 170.023,152.000 171.245,152.000 172.915 C 152.000 173.864,152.225 174.882,152.500 175.179 C 152.903 175.613,152.895 175.658,152.459 175.409 C 152.072 175.190,152.101 175.383,152.560 176.083 C 152.914 176.622,153.067 177.213,152.901 177.396 C 152.736 177.579,152.825 177.599,153.100 177.441 C 153.375 177.282,153.600 177.320,153.600 177.525 C 153.600 177.729,157.466 181.774,162.191 186.513 C 169.222 193.564,170.799 195.348,170.874 196.337 C 170.925 197.001,171.109 197.456,171.283 197.349 C 171.457 197.241,171.600 197.624,171.600 198.200 C 171.600 198.776,171.449 199.154,171.265 199.040 C 171.081 198.926,170.890 199.951,170.842 201.317 C 170.794 202.682,170.584 203.971,170.377 204.180 C 170.170 204.389,170.000 205.323,170.000 206.256 C 170.000 207.189,169.820 208.064,169.600 208.200 C 169.380 208.336,169.200 209.416,169.200 210.600 C 169.200 211.784,169.020 212.864,168.800 213.000 C 168.580 213.136,168.400 214.407,168.400 215.824 C 168.400 217.358,168.230 218.400,167.979 218.400 C 167.713 218.400,167.586 219.639,167.634 221.790 C 167.675 223.655,167.845 225.096,168.011 224.993 C 168.178 224.890,168.419 225.221,168.546 225.729 C 168.766 226.604,170.400 228.827,170.400 228.251 C 170.400 228.102,170.966 228.272,171.659 228.630 C 173.812 229.744,176.885 229.447,179.802 227.843 C 181.189 227.081,182.386 226.489,182.462 226.529 C 182.538 226.568,182.557 226.527,182.504 226.437 C 182.451 226.347,183.351 225.814,184.504 225.253 C 185.657 224.691,186.706 224.080,186.836 223.895 C 186.966 223.711,187.453 223.531,187.919 223.496 C 188.385 223.461,188.680 223.347,188.576 223.243 C 188.400 223.066,190.543 222.021,191.037 222.043 C 191.160 222.048,191.562 221.726,191.930 221.326 C 192.299 220.927,192.870 220.541,193.200 220.470 C 193.530 220.398,193.860 220.173,193.933 219.970 C 194.007 219.766,194.412 219.600,194.833 219.600 C 195.255 219.600,195.600 219.420,195.600 219.200 C 195.600 218.980,195.960 218.800,196.400 218.800 C 196.840 218.800,197.200 218.608,197.200 218.372 C 197.200 217.571,202.507 218.025,203.270 218.892 C 203.638 219.310,204.049 219.628,204.182 219.598 C 204.615 219.501,206.800 220.586,206.800 220.898 C 206.800 221.064,207.160 221.200,207.600 221.200 C 208.040 221.200,208.400 221.380,208.400 221.600 C 208.400 221.820,208.760 222.000,209.200 222.000 C 209.640 222.000,210.000 222.180,210.000 222.400 C 210.000 222.620,210.320 222.800,210.712 222.800 C 211.103 222.800,211.683 223.160,212.000 223.600 C 212.317 224.040,212.897 224.400,213.288 224.400 C 213.680 224.400,214.000 224.580,214.000 224.800 C 214.000 225.020,214.371 225.200,214.824 225.200 C 215.277 225.200,215.536 225.380,215.400 225.600 C 215.264 225.820,215.523 226.000,215.976 226.000 C 216.429 226.000,216.800 226.180,216.800 226.400 C 216.800 226.620,217.074 226.800,217.408 226.800 C 217.742 226.800,218.692 227.227,219.519 227.749 C 221.648 229.093,223.381 229.396,227.400 229.125 C 228.180 229.073,230.800 226.586,230.800 225.898 C 230.800 225.708,230.980 225.664,231.200 225.800 C 231.433 225.944,231.600 225.537,231.600 224.824 C 231.600 224.151,231.796 223.600,232.036 223.600 C 232.447 223.600,232.285 220.785,231.832 220.051 C 231.730 219.886,231.604 218.817,231.552 217.676 C 231.500 216.534,231.309 215.600,231.129 215.600 C 230.948 215.600,230.800 214.531,230.800 213.224 C 230.800 211.917,230.620 210.736,230.400 210.600 C 230.180 210.464,230.000 209.363,230.000 208.153 C 230.000 206.788,229.848 206.047,229.600 206.200 C 229.349 206.355,229.200 205.471,229.200 203.824 C 229.200 202.341,229.026 201.200,228.800 201.200 C 228.224 201.200,228.305 196.555,228.900 195.510 C 229.544 194.378,230.398 193.448,230.406 193.871 C 230.409 194.052,230.634 193.770,230.906 193.245 C 231.178 192.720,231.541 192.321,231.714 192.359 C 232.166 192.459,233.200 191.347,233.200 190.762 C 233.200 190.490,233.309 190.376,233.443 190.509 C 233.760 190.826,234.771 189.891,234.534 189.500 C 234.435 189.335,234.633 189.200,234.976 189.200 C 235.319 189.200,235.555 188.975,235.500 188.700 C 235.445 188.425,235.625 188.245,235.900 188.300 C 236.175 188.355,236.355 188.175,236.300 187.900 C 236.245 187.625,236.438 187.449,236.730 187.510 C 237.021 187.570,237.165 187.467,237.049 187.279 C 236.933 187.092,238.340 185.478,240.176 183.693 C 242.012 181.908,243.413 180.346,243.290 180.224 C 243.167 180.101,243.377 180.000,243.757 180.000 C 244.137 180.000,244.336 179.820,244.200 179.600 C 244.064 179.380,244.244 179.200,244.600 179.200 C 244.956 179.200,245.156 179.053,245.045 178.873 C 244.934 178.693,245.193 178.293,245.621 177.985 C 246.050 177.676,246.400 177.183,246.400 176.888 C 246.400 176.594,246.580 176.464,246.800 176.600 C 247.055 176.757,247.200 175.604,247.200 173.424 C 247.200 171.408,247.036 170.000,246.800 170.000 C 246.580 170.000,246.400 169.722,246.400 169.382 C 246.400 168.057,243.604 166.000,241.803 166.000 C 241.225 166.000,240.845 165.850,240.958 165.668 C 241.071 165.485,240.137 165.295,238.882 165.245 C 237.627 165.195,236.429 164.984,236.220 164.777 C 236.011 164.570,234.706 164.400,233.320 164.400 C 231.907 164.400,230.800 164.224,230.800 164.000 C 230.800 163.772,229.608 163.600,228.024 163.600 C 226.497 163.600,225.136 163.420,225.000 163.200 C 224.864 162.980,223.784 162.800,222.600 162.800 C 221.416 162.800,220.336 162.620,220.200 162.400 C 220.064 162.180,219.636 162.000,219.248 162.000 C 217.691 162.000,211.998 153.282,212.000 150.900 C 212.000 150.625,211.820 150.400,211.600 150.400 C 211.380 150.400,211.200 150.040,211.200 149.600 C 211.200 149.160,211.020 148.800,210.800 148.800 C 210.580 148.800,210.400 148.528,210.400 148.195 C 210.400 147.862,210.232 147.277,210.027 146.895 C 208.843 144.691,207.200 140.996,207.200 140.536 C 207.200 140.241,207.009 140.000,206.776 140.000 C 206.543 140.000,206.443 139.854,206.554 139.675 C 206.809 139.262,205.059 137.200,204.453 137.200 C 204.204 137.200,203.999 137.065,203.997 136.900 C 203.995 136.735,203.509 136.375,202.917 136.100 C 201.741 135.554,197.200 135.407,197.200 135.915 M334.600 221.829 C 332.546 222.897,331.600 224.035,331.600 225.436 C 331.600 226.150,331.436 226.793,331.236 226.867 C 331.036 226.940,330.775 227.540,330.656 228.200 C 330.538 228.860,330.169 230.120,329.838 231.000 C 329.506 231.880,329.227 232.915,329.218 233.300 C 329.208 233.685,329.020 234.000,328.800 234.000 C 328.580 234.000,328.400 234.420,328.400 234.933 C 328.400 235.447,328.265 236.002,328.100 236.167 C 327.935 236.332,327.791 236.767,327.780 237.133 C 327.749 238.196,327.157 239.741,326.491 240.500 C 326.153 240.885,326.039 241.201,326.238 241.202 C 326.966 241.207,324.242 242.422,323.335 242.497 C 322.821 242.540,322.400 242.715,322.400 242.887 C 322.400 243.059,321.961 243.200,321.424 243.200 C 320.887 243.200,320.336 243.380,320.200 243.600 C 320.064 243.820,319.524 244.000,319.000 244.000 C 318.476 244.000,317.936 244.180,317.800 244.400 C 317.664 244.620,316.923 244.800,316.153 244.800 C 315.321 244.800,314.853 244.962,315.000 245.200 C 315.147 245.438,314.679 245.600,313.847 245.600 C 313.077 245.600,312.336 245.780,312.200 246.000 C 312.064 246.220,311.513 246.400,310.976 246.400 C 310.439 246.400,310.000 246.580,310.000 246.800 C 310.000 247.020,309.717 247.200,309.371 247.200 C 308.641 247.200,307.600 248.138,307.600 248.795 C 307.600 249.044,307.446 249.152,307.258 249.036 C 307.070 248.920,306.881 250.169,306.837 251.812 C 306.787 253.687,306.915 254.800,307.179 254.800 C 307.411 254.800,307.579 254.935,307.553 255.100 C 307.446 255.775,307.618 256.397,307.900 256.353 C 308.935 256.189,309.393 256.417,308.800 256.800 C 308.286 257.132,308.300 257.189,308.895 257.194 C 309.532 257.199,310.434 257.788,311.816 259.100 C 312.106 259.375,312.470 259.600,312.626 259.600 C 312.781 259.600,313.334 260.059,313.854 260.621 C 314.374 261.182,314.800 261.529,314.800 261.392 C 314.800 261.255,315.064 261.381,315.386 261.671 C 316.732 262.886,317.189 263.200,317.607 263.200 C 317.849 263.200,317.919 263.408,317.762 263.662 C 317.591 263.938,317.651 264.015,317.913 263.854 C 318.418 263.542,321.178 266.123,321.928 267.608 C 322.440 268.622,322.414 281.565,321.895 284.102 C 321.769 284.722,321.830 285.105,322.035 284.978 C 322.236 284.854,322.400 285.312,322.400 285.995 C 322.400 289.136,327.959 291.389,330.308 289.200 C 330.780 288.760,331.316 288.400,331.499 288.400 C 331.682 288.400,332.628 287.680,333.600 286.800 C 334.572 285.920,335.600 285.200,335.884 285.200 C 336.168 285.200,336.400 285.020,336.400 284.800 C 336.400 284.580,336.651 284.400,336.957 284.400 C 337.264 284.400,337.628 284.104,337.767 283.743 C 337.905 283.381,338.133 283.200,338.274 283.340 C 338.414 283.480,338.780 283.236,339.087 282.797 C 339.394 282.359,339.839 282.000,340.076 282.000 C 340.312 282.000,340.809 281.650,341.180 281.223 C 342.823 279.328,348.078 279.144,349.853 280.920 C 350.007 281.074,350.553 281.200,351.067 281.200 C 351.580 281.200,352.000 281.380,352.000 281.600 C 352.000 281.820,352.529 282.000,353.176 282.000 C 353.823 282.000,354.464 282.180,354.600 282.400 C 354.736 282.620,355.287 282.800,355.824 282.800 C 356.361 282.800,356.800 282.980,356.800 283.200 C 356.800 283.420,357.261 283.600,357.824 283.600 C 358.387 283.600,358.759 283.743,358.651 283.917 C 358.544 284.091,359.008 284.276,359.683 284.328 C 360.358 284.379,361.108 284.543,361.348 284.692 C 361.997 285.092,363.204 285.117,363.441 284.734 C 363.554 284.550,363.915 284.400,364.242 284.400 C 366.339 284.400,368.881 278.039,367.200 277.000 C 366.980 276.864,366.800 276.223,366.800 275.576 C 366.800 274.929,366.620 274.400,366.400 274.400 C 366.180 274.400,366.000 274.019,366.000 273.553 C 366.000 272.681,364.584 267.942,363.954 266.705 C 363.759 266.323,363.600 265.648,363.600 265.205 C 363.600 264.762,363.420 264.400,363.200 264.400 C 362.004 264.400,363.146 259.207,364.608 257.993 C 364.934 257.723,365.201 257.299,365.202 257.051 C 365.203 256.803,365.743 256.025,366.402 255.322 C 367.061 254.619,367.600 253.882,367.600 253.684 C 367.600 253.486,367.960 252.998,368.400 252.600 C 368.840 252.202,369.200 251.623,369.200 251.314 C 369.200 251.006,369.380 250.864,369.600 251.000 C 369.820 251.136,370.000 250.967,370.000 250.624 C 370.000 250.281,370.158 250.000,370.351 250.000 C 370.545 250.000,370.926 249.462,371.198 248.805 C 371.470 248.148,371.852 247.709,372.046 247.829 C 372.241 247.949,372.400 247.809,372.400 247.518 C 372.400 247.226,372.717 246.361,373.104 245.594 C 373.922 243.975,373.951 243.341,373.263 242.092 C 372.988 241.592,372.860 241.027,372.978 240.835 C 373.096 240.644,372.739 240.190,372.184 239.826 C 371.629 239.462,371.281 238.993,371.411 238.782 C 371.545 238.566,371.019 238.400,370.200 238.400 C 369.404 238.400,368.836 238.265,368.938 238.100 C 369.040 237.935,365.196 237.800,360.395 237.800 C 351.863 237.800,351.650 237.780,350.893 236.907 C 350.467 236.416,350.002 236.131,349.859 236.274 C 349.717 236.417,349.600 236.145,349.600 235.670 C 349.600 235.195,349.240 234.582,348.800 234.307 C 348.360 234.032,348.000 233.531,348.000 233.192 C 348.000 232.854,347.640 232.317,347.200 232.000 C 346.760 231.683,346.400 231.238,346.399 231.012 C 346.399 230.785,345.859 229.970,345.200 229.200 C 344.541 228.430,344.001 227.575,344.001 227.300 C 344.000 227.025,343.820 226.800,343.600 226.800 C 343.380 226.800,343.200 226.506,343.200 226.147 C 343.200 225.788,342.861 225.200,342.447 224.841 C 342.034 224.482,341.626 223.832,341.542 223.396 C 341.197 221.601,336.902 220.632,334.600 221.829 M126.965 255.900 C 127.160 256.245,126.921 256.400,126.197 256.400 C 124.862 256.400,123.681 257.033,122.340 258.467 C 121.756 259.090,121.068 259.600,120.811 259.600 C 120.189 259.600,119.172 260.638,119.486 260.952 C 119.622 261.089,119.506 261.200,119.227 261.200 C 118.949 261.200,118.217 261.740,117.600 262.400 C 116.983 263.060,116.288 263.600,116.054 263.600 C 115.820 263.600,115.435 263.960,115.200 264.400 C 114.965 264.840,114.548 265.200,114.274 265.200 C 114.001 265.200,113.512 265.569,113.188 266.019 C 112.075 267.570,108.400 268.732,108.400 267.533 C 108.400 267.277,108.287 267.180,108.149 267.317 C 108.011 267.455,107.288 267.313,106.542 267.002 C 105.796 266.690,105.096 266.442,104.987 266.452 C 104.257 266.513,101.361 265.841,101.188 265.569 C 101.071 265.387,100.306 265.192,99.488 265.137 C 98.670 265.082,98.000 264.893,98.000 264.718 C 98.000 264.543,97.460 264.400,96.800 264.400 C 96.140 264.400,95.600 264.220,95.600 264.000 C 95.600 263.335,90.830 263.513,90.139 264.204 C 89.807 264.536,89.400 264.724,89.235 264.622 C 89.070 264.520,88.694 265.050,88.400 265.800 C 88.106 266.550,87.705 267.065,87.510 266.945 C 87.315 266.824,87.197 267.732,87.246 268.963 C 87.296 270.193,87.486 271.200,87.668 271.200 C 87.851 271.200,88.000 271.524,88.000 271.920 C 88.000 272.814,88.894 274.793,89.300 274.797 C 89.465 274.799,89.600 275.102,89.600 275.472 C 89.600 276.328,90.486 278.800,90.793 278.800 C 90.921 278.800,91.066 279.295,91.116 279.900 C 91.166 280.505,91.385 281.060,91.603 281.133 C 91.822 281.207,92.000 281.702,92.000 282.233 C 92.000 282.765,92.180 283.200,92.400 283.200 C 92.620 283.200,92.800 283.751,92.800 284.424 C 92.800 285.137,92.967 285.544,93.200 285.400 C 93.438 285.253,93.600 285.729,93.600 286.576 C 93.600 287.359,93.420 288.000,93.200 288.000 C 92.980 288.000,92.800 288.270,92.800 288.600 C 92.800 288.930,92.641 289.200,92.447 289.200 C 92.252 289.200,91.993 289.515,91.871 289.900 C 91.575 290.836,90.276 292.966,89.900 293.133 C 89.735 293.207,89.600 293.522,89.600 293.833 C 89.600 294.145,89.420 294.400,89.200 294.400 C 88.980 294.400,88.800 294.670,88.800 295.000 C 88.800 295.330,88.632 295.600,88.427 295.600 C 88.222 295.600,87.947 295.938,87.816 296.351 C 87.684 296.764,87.133 297.619,86.589 298.251 C 86.046 298.883,85.601 299.636,85.600 299.924 C 85.600 300.212,85.420 300.336,85.200 300.200 C 84.980 300.064,84.778 300.143,84.750 300.376 C 84.664 301.103,84.568 301.358,83.794 302.912 C 82.786 304.934,83.439 307.655,85.322 309.284 L 86.600 310.388 93.100 310.340 C 96.675 310.313,99.600 310.161,99.600 310.002 C 99.600 309.386,105.061 309.551,105.586 310.183 C 105.863 310.517,106.214 310.715,106.364 310.622 C 106.763 310.375,107.515 310.919,107.668 311.565 C 107.741 311.872,108.295 312.609,108.900 313.205 C 109.505 313.800,110.000 314.576,110.000 314.929 C 110.000 315.283,110.365 315.767,110.811 316.006 C 111.257 316.245,111.526 316.596,111.409 316.786 C 111.291 316.976,111.357 317.192,111.554 317.266 C 112.079 317.462,115.200 321.505,115.200 321.988 C 115.200 322.215,115.374 322.400,115.586 322.400 C 115.798 322.400,116.383 322.990,116.886 323.712 C 117.769 324.979,118.147 325.117,121.200 325.284 C 123.113 325.388,124.585 324.345,125.552 322.200 C 125.850 321.540,126.252 320.687,126.447 320.305 C 126.641 319.923,126.800 318.968,126.800 318.182 C 126.800 317.396,126.945 316.843,127.123 316.953 C 127.301 317.062,127.491 316.398,127.545 315.476 C 127.599 314.554,127.813 313.629,128.021 313.420 C 128.230 313.211,128.400 312.634,128.400 312.139 C 128.400 311.643,128.561 310.824,128.758 310.319 C 128.955 309.813,129.347 308.590,129.629 307.600 C 130.377 304.974,133.570 302.400,136.079 302.400 C 136.475 302.400,136.800 302.220,136.800 302.000 C 136.800 301.780,137.115 301.597,137.500 301.594 C 138.318 301.587,141.061 300.673,141.459 300.274 C 141.610 300.123,142.063 300.000,142.467 300.000 C 142.870 300.000,143.200 299.820,143.200 299.600 C 143.200 299.380,143.639 299.200,144.176 299.200 C 144.713 299.200,145.264 299.020,145.400 298.800 C 145.536 298.580,145.997 298.400,146.424 298.400 C 146.851 298.400,147.200 298.220,147.200 298.000 C 147.200 297.780,147.500 297.600,147.867 297.600 C 148.233 297.600,148.414 297.481,148.269 297.336 C 148.124 297.191,148.364 296.820,148.803 296.513 C 149.241 296.206,149.600 295.605,149.600 295.177 C 149.600 294.750,149.780 294.400,150.000 294.400 C 150.220 294.400,150.400 294.209,150.400 293.976 C 150.400 293.743,150.175 293.688,149.900 293.853 C 149.525 294.078,149.530 293.993,149.919 293.512 C 150.269 293.081,150.301 292.786,150.019 292.612 C 149.789 292.469,149.595 291.868,149.588 291.276 C 149.580 290.570,149.156 289.856,148.353 289.200 C 147.681 288.650,146.786 287.885,146.365 287.500 C 145.944 287.115,145.442 286.800,145.249 286.800 C 145.056 286.800,144.670 286.526,144.392 286.190 C 144.114 285.855,143.802 285.664,143.700 285.767 C 143.598 285.869,143.040 285.513,142.461 284.976 C 141.882 284.439,141.271 284.000,141.104 284.000 C 140.937 284.000,140.440 283.640,140.000 283.200 C 139.560 282.760,138.930 282.400,138.600 282.400 C 138.270 282.400,138.000 282.220,138.000 282.000 C 138.000 281.780,137.730 281.600,137.400 281.600 C 137.070 281.600,136.800 281.420,136.800 281.200 C 136.800 280.980,136.565 280.800,136.278 280.800 C 134.303 280.800,133.278 278.357,133.217 273.499 C 133.184 270.913,132.988 267.763,132.781 266.499 C 132.574 265.234,132.404 263.081,132.402 261.713 C 132.400 258.942,130.613 256.400,128.667 256.400 C 128.168 256.400,127.518 256.175,127.221 255.900 C 126.790 255.500,126.739 255.500,126.965 255.900 " stroke="none" fill="#fcd32c" fill-rule="evenodd"></path><path id="path3" d="M83.200 68.800 C 83.200 69.020,82.649 69.200,81.977 69.200 C 80.736 69.200,71.600 77.605,71.600 78.747 C 71.600 78.996,71.420 79.200,71.200 79.200 C 70.980 79.200,70.800 79.704,70.800 80.320 C 70.800 80.936,70.584 81.656,70.320 81.920 C 69.947 82.293,69.947 82.507,70.320 82.880 C 70.584 83.144,70.800 83.869,70.800 84.491 C 70.800 86.085,72.973 88.400,74.470 88.400 C 75.097 88.400,75.992 88.625,76.458 88.900 C 77.135 89.300,77.341 89.300,77.486 88.900 C 77.585 88.625,78.167 88.400,78.779 88.400 C 80.143 88.400,81.364 87.463,84.991 83.636 C 86.536 82.005,88.182 80.281,88.649 79.805 C 91.241 77.160,90.617 70.000,87.795 70.000 C 87.468 70.000,87.200 69.820,87.200 69.600 C 87.200 69.380,86.671 69.200,86.024 69.200 C 85.377 69.200,84.736 69.020,84.600 68.800 C 84.464 68.580,84.093 68.400,83.776 68.400 C 83.459 68.400,83.200 68.580,83.200 68.800 M364.600 102.400 C 364.464 102.620,363.988 102.800,363.542 102.800 C 362.531 102.800,354.431 110.579,347.336 118.363 C 346.051 119.773,341.400 124.570,337.000 129.023 C 332.600 133.477,326.840 139.399,324.200 142.182 C 321.560 144.966,314.765 151.924,309.100 157.644 C 303.435 163.365,298.800 168.305,298.800 168.623 C 298.800 168.940,298.620 169.200,298.400 169.200 C 298.180 169.200,298.000 169.549,298.000 169.976 C 298.000 170.403,297.820 170.864,297.600 171.000 C 297.380 171.136,297.200 171.856,297.200 172.600 C 297.200 173.344,297.380 174.064,297.600 174.200 C 297.820 174.336,298.000 174.797,298.000 175.224 C 298.000 175.651,298.180 176.000,298.400 176.000 C 298.620 176.000,298.800 176.287,298.800 176.637 C 298.800 176.988,299.160 177.369,299.600 177.484 C 300.040 177.599,300.400 177.852,300.400 178.047 C 300.400 178.241,300.749 178.400,301.176 178.400 C 301.603 178.400,302.064 178.580,302.200 178.800 C 303.644 181.136,308.550 177.878,315.435 170.012 C 316.296 169.029,317.531 167.769,318.180 167.212 C 318.828 166.655,320.628 164.872,322.180 163.250 C 323.731 161.627,328.480 156.767,332.734 152.450 C 336.988 148.132,340.932 144.005,341.498 143.279 C 342.064 142.552,347.494 136.959,353.564 130.851 C 372.748 111.545,372.400 111.957,372.400 108.546 C 372.400 107.146,372.264 106.000,372.098 106.000 C 371.931 106.000,371.556 105.460,371.264 104.800 C 370.972 104.140,370.478 103.600,370.166 103.600 C 369.855 103.600,369.600 103.420,369.600 103.200 C 369.600 102.980,369.161 102.800,368.624 102.800 C 368.087 102.800,367.536 102.620,367.400 102.400 C 367.264 102.180,366.634 102.000,366.000 102.000 C 365.366 102.000,364.736 102.180,364.600 102.400 M246.000 105.600 C 246.000 105.820,245.659 106.000,245.242 106.000 C 244.195 106.000,242.000 108.139,242.000 109.160 C 242.000 109.622,241.820 110.000,241.600 110.000 C 241.380 110.000,241.200 110.810,241.200 111.800 C 241.200 112.790,241.380 113.600,241.600 113.600 C 241.820 113.600,242.000 113.968,242.000 114.418 C 242.000 116.008,245.305 118.406,247.480 118.394 C 250.118 118.380,253.600 116.309,253.600 114.754 C 253.600 114.365,253.780 113.936,254.000 113.800 C 254.220 113.664,254.400 112.764,254.400 111.800 C 254.400 110.836,254.220 109.936,254.000 109.800 C 253.780 109.664,253.600 109.272,253.600 108.929 C 253.600 108.138,251.220 106.015,250.324 106.006 C 249.952 106.003,249.536 105.820,249.400 105.600 C 249.264 105.380,248.443 105.200,247.576 105.200 C 246.709 105.200,246.000 105.380,246.000 105.600 M160.103 122.565 C 158.440 123.125,156.020 125.201,156.009 126.076 C 156.004 126.448,155.820 126.864,155.600 127.000 C 155.380 127.136,155.200 128.047,155.200 129.024 C 155.200 130.001,155.380 130.800,155.600 130.800 C 155.820 130.800,156.000 131.186,156.000 131.657 C 156.000 132.711,158.109 134.800,159.173 134.800 C 159.602 134.800,160.064 134.980,160.200 135.200 C 161.239 136.881,167.600 133.974,167.600 131.819 C 167.600 131.505,167.780 131.136,168.000 131.000 C 168.220 130.864,168.400 129.863,168.400 128.776 C 168.400 127.689,168.220 126.800,168.000 126.800 C 167.780 126.800,167.600 126.498,167.600 126.128 C 167.600 125.519,165.046 122.813,164.450 122.790 C 164.312 122.785,163.570 122.634,162.799 122.455 C 161.946 122.256,160.892 122.300,160.103 122.565 M236.175 187.700 L 235.000 189.000 236.300 187.825 C 237.015 187.179,237.600 186.594,237.600 186.525 C 237.600 186.216,237.270 186.488,236.175 187.700 M112.945 190.910 C 109.398 193.342,109.266 199.820,112.731 201.395 C 113.209 201.612,113.600 201.927,113.600 202.095 C 113.600 203.210,119.670 202.356,120.968 201.059 C 126.712 195.315,119.615 186.337,112.945 190.910 M264.531 203.807 C 259.980 208.557,264.051 215.367,270.915 214.485 C 272.758 214.249,275.200 212.008,275.200 210.555 C 275.200 210.024,275.420 209.236,275.690 208.805 C 276.077 208.185,276.077 207.917,275.690 207.530 C 275.420 207.260,275.194 206.581,275.187 206.020 C 275.157 203.625,272.688 202.000,269.077 202.000 L 266.263 202.000 264.531 203.807 M356.880 237.898 C 358.794 237.971,362.034 237.971,364.080 237.898 C 366.126 237.826,364.560 237.766,360.600 237.765 C 356.640 237.765,354.966 237.824,356.880 237.898 M199.000 247.600 C 198.864 247.820,198.223 248.000,197.576 248.000 C 196.929 248.000,196.400 248.180,196.400 248.400 C 196.400 248.620,196.175 248.801,195.900 248.803 C 194.718 248.809,193.600 251.373,193.600 254.074 C 193.600 260.188,200.062 262.606,204.627 258.200 C 207.766 255.171,205.907 248.000,201.984 248.000 C 201.359 248.000,200.736 247.820,200.600 247.600 C 200.464 247.380,200.104 247.200,199.800 247.200 C 199.496 247.200,199.136 247.380,199.000 247.600 M132.893 266.800 C 132.893 267.570,132.975 267.885,133.076 267.500 C 133.176 267.115,133.176 266.485,133.076 266.100 C 132.975 265.715,132.893 266.030,132.893 266.800 M149.800 321.600 C 149.664 321.820,149.248 322.000,148.876 322.000 C 146.321 322.002,143.789 327.659,145.160 330.305 C 145.792 331.525,149.667 339.734,150.492 341.600 C 150.929 342.590,151.448 343.713,151.644 344.095 C 151.840 344.477,152.000 345.062,152.000 345.395 C 152.000 345.728,152.180 346.000,152.400 346.000 C 152.620 346.000,152.800 346.540,152.800 347.200 C 152.800 347.860,152.980 348.400,153.200 348.400 C 153.420 348.400,153.600 348.839,153.600 349.376 C 153.600 349.913,153.780 350.464,154.000 350.600 C 154.220 350.736,154.400 351.276,154.400 351.800 C 154.400 352.324,154.580 352.864,154.800 353.000 C 155.020 353.136,155.200 353.676,155.200 354.200 C 155.200 354.724,155.380 355.264,155.600 355.400 C 155.820 355.536,156.000 356.267,156.000 357.024 C 156.000 357.781,156.180 358.400,156.400 358.400 C 156.620 358.400,156.800 358.940,156.800 359.600 C 156.800 360.260,156.980 360.800,157.200 360.800 C 157.420 360.800,157.600 361.700,157.600 362.800 C 157.600 363.900,157.780 364.800,158.000 364.800 C 158.220 364.800,158.400 365.599,158.400 366.576 C 158.400 367.553,158.580 368.464,158.800 368.600 C 159.020 368.736,159.200 369.816,159.200 371.000 C 159.200 372.184,159.361 373.252,159.558 373.374 C 159.755 373.496,160.031 376.252,160.171 379.498 C 161.002 398.779,161.385 400.049,166.459 400.335 C 170.672 400.573,171.647 400.267,172.934 398.298 L 174.045 396.600 173.836 389.000 C 173.721 384.820,173.442 379.780,173.217 377.800 C 172.992 375.820,172.708 373.030,172.587 371.600 C 172.466 370.170,172.204 368.640,172.006 368.200 C 171.808 367.760,171.539 366.590,171.410 365.600 C 171.281 364.610,171.072 363.035,170.947 362.100 C 170.822 361.165,170.558 360.400,170.360 360.400 C 170.162 360.400,170.000 359.828,170.000 359.128 C 170.000 357.865,169.422 355.635,168.751 354.305 C 168.558 353.923,168.400 353.079,168.400 352.429 C 168.400 351.779,168.220 351.136,168.000 351.000 C 167.780 350.864,167.600 350.324,167.600 349.800 C 167.600 349.276,167.420 348.736,167.200 348.600 C 166.980 348.464,166.800 347.913,166.800 347.376 C 166.800 346.839,166.620 346.400,166.400 346.400 C 166.180 346.400,166.000 345.860,166.000 345.200 C 166.000 344.540,165.820 344.000,165.600 344.000 C 165.380 344.000,165.200 343.460,165.200 342.800 C 165.200 342.140,165.020 341.600,164.800 341.600 C 164.580 341.600,164.400 341.328,164.400 340.995 C 164.400 340.662,164.192 339.987,163.938 339.495 C 162.967 337.618,162.800 337.193,162.800 336.605 C 162.800 336.272,162.620 336.000,162.400 336.000 C 162.180 336.000,162.000 335.550,162.000 335.000 C 162.000 334.450,161.820 334.000,161.600 334.000 C 161.380 334.000,161.200 333.640,161.200 333.200 C 161.200 332.760,161.020 332.400,160.800 332.400 C 160.580 332.400,160.400 332.040,160.400 331.600 C 160.400 331.160,160.220 330.800,160.000 330.800 C 159.780 330.800,159.600 330.440,159.600 330.000 C 159.600 329.560,159.420 329.200,159.200 329.200 C 158.980 329.200,158.800 328.924,158.800 328.587 C 158.800 327.242,156.080 322.800,155.256 322.800 C 155.005 322.800,154.800 322.620,154.800 322.400 C 154.800 322.180,154.271 322.000,153.624 322.000 C 152.977 322.000,152.336 321.820,152.200 321.600 C 152.064 321.380,151.524 321.200,151.000 321.200 C 150.476 321.200,149.936 321.380,149.800 321.600 M356.000 343.600 C 356.000 343.820,355.732 344.000,355.405 344.000 C 353.121 344.000,344.799 354.073,344.801 356.835 C 344.806 361.720,351.438 365.446,354.708 362.400 C 355.180 361.960,355.674 361.600,355.805 361.600 C 356.048 361.600,359.062 358.549,362.500 354.823 C 363.691 353.532,364.400 352.397,364.400 351.782 C 364.400 351.242,364.580 350.800,364.800 350.800 C 365.020 350.800,365.200 350.271,365.200 349.624 C 365.200 348.977,365.020 348.336,364.800 348.200 C 364.580 348.064,364.400 347.603,364.400 347.176 C 364.400 346.749,364.220 346.400,364.000 346.400 C 363.780 346.400,363.600 346.040,363.600 345.600 C 363.600 345.156,363.333 344.800,363.000 344.800 C 362.670 344.800,362.400 344.620,362.400 344.400 C 362.400 344.180,362.130 344.000,361.800 344.000 C 361.470 344.000,361.200 343.820,361.200 343.600 C 361.200 343.374,360.067 343.200,358.600 343.200 C 357.133 343.200,356.000 343.374,356.000 343.600 " stroke="none" fill="#fcac04" fill-rule="evenodd"></path><path id="path4" d="M304.400 1.600 C 304.400 1.820,304.082 2.000,303.694 2.000 C 303.303 2.000,302.549 2.712,302.000 3.600 C 301.456 4.480,300.874 5.200,300.706 5.200 C 300.538 5.200,300.400 5.560,300.400 6.000 C 300.400 6.440,300.220 6.800,300.000 6.800 C 299.780 6.800,299.600 7.160,299.600 7.600 C 299.600 8.040,299.420 8.400,299.200 8.400 C 298.980 8.400,298.800 8.593,298.800 8.828 C 298.800 9.063,298.299 10.008,297.688 10.928 C 296.053 13.386,295.472 14.669,295.774 15.157 C 295.932 15.413,295.820 15.506,295.501 15.383 C 294.949 15.172,293.600 17.465,293.600 18.614 C 293.600 18.936,293.420 19.200,293.200 19.200 C 292.980 19.200,292.800 19.436,292.800 19.725 C 292.800 20.013,292.440 20.636,292.000 21.108 C 291.560 21.580,291.200 22.244,291.200 22.583 C 291.200 22.922,291.020 23.200,290.800 23.200 C 290.580 23.200,290.400 23.560,290.400 24.000 C 290.400 24.440,290.220 24.800,290.000 24.800 C 289.780 24.800,289.600 25.070,289.600 25.400 C 289.600 25.730,289.420 26.000,289.200 26.000 C 288.980 26.000,288.800 26.270,288.800 26.600 C 288.800 26.930,288.620 27.200,288.400 27.200 C 288.180 27.200,288.000 27.470,288.000 27.800 C 288.000 28.130,287.820 28.400,287.600 28.400 C 287.380 28.400,287.200 28.745,287.200 29.167 C 287.200 29.588,287.065 29.993,286.900 30.067 C 286.524 30.234,285.225 32.364,284.929 33.300 C 284.807 33.685,284.548 34.000,284.353 34.000 C 284.159 34.000,284.000 34.360,284.000 34.800 C 284.000 35.240,283.841 35.600,283.647 35.600 C 283.452 35.600,283.193 35.915,283.071 36.300 C 282.784 37.205,281.504 39.325,281.042 39.660 C 280.845 39.802,280.794 40.207,280.929 40.560 C 281.086 40.968,280.962 41.200,280.587 41.200 C 280.264 41.200,280.000 41.393,280.000 41.628 C 280.000 41.863,279.470 42.826,278.823 43.767 C 278.176 44.707,277.531 45.937,277.390 46.499 C 277.249 47.061,276.779 47.901,276.346 48.366 C 275.913 48.830,275.670 49.389,275.805 49.608 C 275.940 49.827,275.769 50.114,275.425 50.246 C 275.081 50.378,274.800 50.826,274.800 51.243 C 274.800 51.659,274.620 52.000,274.400 52.000 C 274.180 52.000,274.000 52.320,274.000 52.712 C 274.000 53.103,273.640 53.683,273.200 54.000 C 272.760 54.317,272.400 54.897,272.400 55.288 C 272.400 55.680,272.220 56.000,272.000 56.000 C 271.780 56.000,271.600 56.360,271.600 56.800 C 271.600 57.240,271.420 57.600,271.200 57.600 C 270.980 57.600,270.800 57.870,270.800 58.200 C 270.800 58.530,270.620 58.800,270.400 58.800 C 270.180 58.800,270.000 59.070,270.000 59.400 C 270.000 59.730,269.854 60.000,269.675 60.000 C 269.496 60.000,269.102 60.630,268.800 61.400 C 268.498 62.170,268.085 62.800,267.883 62.800 C 267.680 62.800,267.604 63.034,267.714 63.321 C 267.824 63.607,267.483 64.256,266.957 64.763 C 266.431 65.269,266.000 65.935,266.000 66.242 C 266.000 66.549,265.820 66.800,265.600 66.800 C 265.380 66.800,265.200 67.160,265.200 67.600 C 265.200 68.040,265.020 68.400,264.800 68.400 C 264.580 68.400,264.400 68.760,264.400 69.200 C 264.400 69.640,264.248 70.000,264.063 70.000 C 263.877 70.000,263.295 70.855,262.768 71.900 C 262.242 72.945,261.717 73.890,261.602 74.000 C 261.486 74.110,261.034 74.920,260.596 75.800 C 260.158 76.680,259.665 77.460,259.500 77.533 C 259.335 77.607,259.200 78.012,259.200 78.433 C 259.200 78.855,259.020 79.200,258.800 79.200 C 258.580 79.200,258.400 79.478,258.400 79.817 C 258.400 80.156,258.040 80.820,257.600 81.292 C 256.723 82.234,256.376 88.400,257.200 88.400 C 257.420 88.400,257.600 88.683,257.600 89.029 C 257.600 89.720,258.169 90.337,259.510 91.100 C 260.558 91.696,266.000 91.780,266.000 91.200 C 266.000 90.980,266.225 90.799,266.500 90.799 C 266.775 90.798,267.360 90.259,267.800 89.600 C 268.240 88.941,268.735 88.402,268.900 88.401 C 269.065 88.401,269.200 88.207,269.200 87.972 C 269.200 87.737,269.702 86.792,270.316 85.872 C 270.929 84.952,271.872 83.300,272.410 82.200 C 272.949 81.100,273.502 80.110,273.639 80.000 C 274.099 79.632,275.200 77.247,275.200 76.620 C 275.200 76.279,275.380 76.000,275.600 76.000 C 275.820 76.000,276.000 75.764,276.000 75.475 C 276.000 75.187,276.360 74.564,276.800 74.092 C 277.240 73.620,277.600 72.956,277.600 72.617 C 277.600 72.278,277.780 72.000,278.000 72.000 C 278.220 72.000,278.400 71.745,278.400 71.433 C 278.400 71.122,278.535 70.807,278.700 70.733 C 279.076 70.566,280.375 68.436,280.671 67.500 C 280.793 67.115,281.052 66.800,281.247 66.800 C 281.441 66.800,281.600 66.440,281.600 66.000 C 281.600 65.560,281.759 65.200,281.953 65.200 C 282.148 65.200,282.407 64.885,282.529 64.500 C 282.825 63.564,284.124 61.434,284.500 61.267 C 284.665 61.193,284.800 60.788,284.800 60.367 C 284.800 59.945,284.980 59.600,285.200 59.600 C 285.420 59.600,285.600 59.364,285.600 59.075 C 285.600 58.787,285.915 58.202,286.301 57.775 C 286.686 57.349,287.448 56.100,287.995 55.000 C 288.542 53.900,289.095 52.910,289.224 52.800 C 289.520 52.549,290.934 49.879,291.820 47.900 C 292.189 47.075,292.651 46.400,292.846 46.400 C 293.041 46.400,293.200 46.040,293.200 45.600 C 293.200 45.160,293.380 44.800,293.600 44.800 C 293.820 44.800,294.000 44.440,294.000 44.000 C 294.000 43.560,294.180 43.200,294.400 43.200 C 294.620 43.200,294.800 42.850,294.800 42.423 C 294.800 41.995,295.128 41.410,295.529 41.123 C 295.930 40.835,296.514 40.015,296.827 39.300 C 297.139 38.585,297.531 38.000,297.698 38.000 C 297.864 38.000,298.000 37.722,298.000 37.383 C 298.000 37.044,298.360 36.380,298.800 35.908 C 299.240 35.436,299.600 34.813,299.600 34.525 C 299.600 34.236,299.780 34.000,300.000 34.000 C 300.220 34.000,300.400 33.640,300.400 33.200 C 300.400 32.760,300.580 32.400,300.800 32.400 C 301.020 32.400,301.200 32.122,301.200 31.783 C 301.200 31.444,301.560 30.780,302.000 30.308 C 302.440 29.836,302.800 29.213,302.800 28.925 C 302.800 28.636,302.980 28.400,303.200 28.400 C 303.420 28.400,303.600 28.040,303.600 27.600 C 303.600 27.160,303.780 26.800,304.000 26.800 C 304.220 26.800,304.400 26.440,304.400 26.000 C 304.400 25.560,304.547 25.200,304.726 25.200 C 305.049 25.200,305.623 24.243,307.847 20.000 C 308.481 18.790,309.135 17.740,309.300 17.667 C 309.465 17.593,309.600 17.188,309.600 16.767 C 309.600 16.345,309.780 16.000,310.000 16.000 C 310.220 16.000,310.400 15.680,310.400 15.288 C 310.400 14.897,310.760 14.317,311.200 14.000 C 311.640 13.683,312.000 13.103,312.000 12.712 C 312.000 12.320,312.180 12.000,312.400 12.000 C 312.620 12.000,312.800 11.640,312.800 11.200 C 312.800 10.760,312.980 10.400,313.200 10.400 C 313.426 10.400,313.600 9.267,313.600 7.800 C 313.600 6.333,313.426 5.200,313.200 5.200 C 312.980 5.200,312.800 4.922,312.800 4.582 C 312.800 3.908,311.465 2.492,310.083 1.700 C 309.046 1.105,304.400 1.024,304.400 1.600 M235.600 122.668 C 233.937 123.384,232.400 124.729,232.400 125.470 C 232.400 125.761,232.220 126.000,232.000 126.000 C 231.422 126.000,231.505 131.043,232.100 132.090 C 233.600 134.728,238.795 136.826,239.800 135.200 C 239.936 134.980,240.325 134.800,240.664 134.800 C 242.555 134.800,244.000 132.219,244.000 128.840 C 244.000 126.947,243.834 125.600,243.600 125.600 C 243.380 125.600,243.200 125.396,243.200 125.147 C 243.200 124.495,241.123 122.801,240.324 122.800 C 239.952 122.800,239.536 122.620,239.400 122.400 C 239.050 121.833,237.243 121.961,235.600 122.668 M41.200 199.200 C 41.200 199.420,40.946 199.600,40.635 199.600 C 40.041 199.600,36.970 202.543,33.100 206.821 L 30.800 209.363 30.800 212.203 C 30.800 215.182,32.419 218.000,34.130 218.000 C 34.473 218.000,34.864 218.180,35.000 218.400 C 35.136 218.620,36.036 218.800,37.000 218.800 C 37.964 218.800,38.864 218.620,39.000 218.400 C 39.136 218.180,39.513 218.000,39.838 218.000 C 40.503 218.000,40.954 217.613,46.006 212.715 C 47.983 210.799,49.600 208.954,49.600 208.615 C 49.600 208.277,49.780 208.000,50.000 208.000 C 50.231 208.000,50.400 206.733,50.400 205.000 C 50.400 203.267,50.231 202.000,50.000 202.000 C 49.780 202.000,49.600 201.717,49.600 201.371 C 49.600 200.563,48.637 199.600,47.829 199.600 C 47.483 199.600,47.200 199.420,47.200 199.200 C 47.200 198.969,45.933 198.800,44.200 198.800 C 42.467 198.800,41.200 198.969,41.200 199.200 M206.593 349.400 C 206.593 374.260,206.641 384.371,206.700 371.869 C 206.759 359.367,206.759 339.027,206.700 326.669 C 206.641 314.311,206.593 324.540,206.593 349.400 M45.800 339.600 C 45.664 339.820,45.113 340.000,44.576 340.000 C 44.039 340.000,43.600 340.180,43.600 340.400 C 43.600 340.620,43.325 340.800,42.989 340.800 C 42.377 340.800,38.808 344.107,38.791 344.689 C 38.786 344.860,38.430 345.450,38.000 346.000 C 37.570 346.550,37.214 347.405,37.209 347.900 C 37.204 348.395,37.015 348.800,36.788 348.800 C 36.531 348.800,36.398 350.224,36.433 352.600 C 36.464 354.690,36.650 356.400,36.845 356.400 C 37.040 356.400,37.200 356.732,37.200 357.139 C 37.200 358.166,38.373 360.415,39.044 360.672 C 39.350 360.790,39.600 361.226,39.600 361.643 C 39.600 362.059,39.843 362.400,40.141 362.400 C 40.438 362.400,41.246 362.940,41.937 363.600 C 42.628 364.260,43.464 364.800,43.796 364.800 C 44.128 364.800,44.400 364.980,44.400 365.200 C 44.400 365.420,45.199 365.600,46.176 365.600 C 47.153 365.600,48.064 365.780,48.200 366.000 C 48.336 366.220,48.966 366.400,49.600 366.400 C 50.234 366.400,50.864 366.220,51.000 366.000 C 51.136 365.780,51.957 365.600,52.824 365.600 C 53.691 365.600,54.400 365.420,54.400 365.200 C 54.400 364.980,54.760 364.800,55.200 364.800 C 55.640 364.800,56.000 364.642,56.000 364.449 C 56.000 364.255,56.540 363.873,57.200 363.600 C 57.860 363.327,58.400 362.953,58.400 362.770 C 58.400 362.586,58.850 361.986,59.400 361.436 C 59.950 360.886,60.400 360.248,60.400 360.018 C 60.400 359.788,60.580 359.600,60.800 359.600 C 61.020 359.600,61.200 359.240,61.200 358.800 C 61.200 358.360,61.380 358.000,61.600 358.000 C 61.820 358.000,62.000 357.370,62.000 356.600 C 62.000 355.830,62.180 355.200,62.400 355.200 C 62.622 355.200,62.800 354.141,62.800 352.824 C 62.800 351.517,62.620 350.336,62.400 350.200 C 62.180 350.064,62.000 349.459,62.000 348.856 C 62.000 347.660,61.180 345.608,60.700 345.603 C 60.535 345.601,60.400 345.330,60.400 345.000 C 60.400 344.670,60.220 344.400,60.000 344.400 C 59.780 344.400,59.600 344.212,59.600 343.982 C 59.600 343.439,57.761 341.600,57.218 341.600 C 56.988 341.600,56.800 341.464,56.800 341.298 C 56.800 341.131,56.215 340.760,55.500 340.471 C 54.785 340.183,53.887 339.779,53.505 339.574 C 52.574 339.072,46.112 339.094,45.800 339.600 " stroke="none" fill="#2cc474" fill-rule="evenodd"></path></g></svg>